<svg xmlns="http://www.w3.org/2000/svg" width="888" height="200" viewBox="0 0 888 200">
  <path fill="none" d="M338.081 152.852h211.837v34.538H338.081z"/>
  <path fill="#0480A4" d="M360.174 184.08v.9H340.51v-32.129h.9v31.229h18.764zm19.575.9h-.9v-5.715h-.09c-.855 3.555-3.78 6.256-8.325 6.256-4.815 0-8.234-2.971-8.234-8.326v-15.344h.9v15.209c0 5.355 3.42 7.561 7.334 7.561 5.535 0 8.415-4.545 8.415-9.674v-13.096h.9v23.129zm4.951-23.128h.9v5.715h.09c.855-3.555 3.78-6.254 7.38-6.254 3.6-.09 6.165 1.979 6.93 5.398h.09c.9-3.193 3.825-5.398 7.334-5.398 5.58 0 7.335 3.465 7.335 8.459v15.209h-.9v-15.209c0-4.59-1.395-7.561-6.435-7.561-4.544 0-7.199 3.781-7.245 8.102v14.668h-.9v-14.85c.045-4.273-1.08-7.92-6.209-7.92-4.59 0-7.47 4.545-7.47 9.676v13.094h-.9v-23.129zm35.909-4.456h-.9v-4.545h.9v4.545zm0 27.584h-.9v-23.129h.9v23.129zm14.175-23.667c6.75 0 10.394 5.805 10.394 12.104 0 6.346-3.645 12.105-10.439 12.105-6.75 0-10.395-5.76-10.395-12.105 0-6.3 3.645-12.104 10.44-12.104zm0 23.308c6.165 0 9.495-5.355 9.495-11.205 0-5.76-3.33-11.205-9.495-11.205-6.255 0-9.54 5.445-9.54 11.205 0 5.85 3.285 11.205 9.54 11.205z"/>
  <path fill="#241C1C" d="M475.148 152.852h3.059v23.174c0 6.525-2.43 9.631-9.359 9.631-7.379 0-8.999-5.4-8.954-10.98h3.06c.09 2.746-.18 8.371 6.166 8.371 4.77 0 6.029-2.432 6.029-8.326v-21.87zm8.731 16.019c.27-5.443 4.094-7.783 9.404-7.783 4.096 0 8.549 1.26 8.549 7.469v12.33c0 1.08.541 1.709 1.666 1.709.314 0 .674-.09.9-.18v2.385c-.631.135-1.08.18-1.846.18-2.879 0-3.33-1.619-3.33-4.049h-.09c-1.98 3.014-4.004 4.725-8.459 4.725-4.275 0-7.785-2.115-7.785-6.795 0-6.525 6.346-6.75 12.465-7.471 2.34-.27 3.645-.584 3.645-3.148 0-3.826-2.744-4.77-6.074-4.77-3.51 0-6.121 1.619-6.211 5.398h-2.834zm15.119 3.42h-.09c-.359.676-1.621.9-2.385 1.035-4.814.855-10.801.811-10.801 5.355 0 2.834 2.521 4.59 5.176 4.59 4.32 0 8.145-2.746 8.1-7.291v-3.689zm5.895-10.529h3.15l7.289 20.385h.09l7.201-20.385h2.924l-8.684 23.219h-3.016l-8.954-23.219zm23.175 7.109c.27-5.443 4.094-7.783 9.404-7.783 4.096 0 8.549 1.26 8.549 7.469v12.33c0 1.08.541 1.709 1.666 1.709.314 0 .674-.09.9-.18v2.385c-.631.135-1.08.18-1.846.18-2.879 0-3.33-1.619-3.33-4.049h-.09c-1.98 3.014-4.004 4.725-8.459 4.725-4.275 0-7.785-2.115-7.785-6.795 0-6.525 6.346-6.75 12.465-7.471 2.34-.27 3.645-.584 3.645-3.148 0-3.826-2.744-4.77-6.074-4.77-3.51 0-6.121 1.619-6.211 5.398h-2.834zm15.12 3.42h-.09c-.359.676-1.621.9-2.385 1.035-4.814.855-10.801.811-10.801 5.355 0 2.834 2.521 4.59 5.176 4.59 4.32 0 8.145-2.746 8.1-7.291v-3.689z"/>
  <g fill="#241C1C">
    <path stroke="#241C1C" stroke-miterlimit="10" d="M425.122 12.609C391.365 12.609 364 39.974 364 73.73s27.365 61.121 61.122 61.121c33.757 0 61.121-27.365 61.121-61.121-.001-33.756-27.364-61.121-61.121-61.121zm0 120.845c-32.984 0-59.725-26.738-59.725-59.724s26.74-59.725 59.725-59.725c32.984 0 59.722 26.739 59.722 59.725s-26.739 59.724-59.722 59.724z"/>
    <path d="M457.639 15.664h20.955v2.097h-20.955zm-11.002 4.017h44.182v2.096h-44.182zm-9.78 4.541h68.629v2.096h-68.629zm-6.636 4.54h66.359v2.095h-66.359zm7.51 4.366h72.996v2.096h-72.996zm-11.352 5.064h87.316v2.095h-87.316zm-7.335 3.667h35.799v2.095h-35.799zm-4.016 4.366h106.876v2.096H415.028zm27.156 4.191h53.087v2.096h-53.087zm-15.805 4.017h87.316v2.096h-87.316zm-10.052 6.81H524v2.096H416.327zm32.056 6.268h74.742v2.095h-74.742zm31.433 29.183h42.088v2.095h-42.088zm-68.63-20.957H487.5v2.096h-76.314zm6.898 4.193h74.48v2.095h-74.48zm78.496 0h25.324v2.095H496.58zm-47.236 4.365h73.781v2.096h-73.781zm-35.582 4.716h108.142v2.095H413.762zm0 4.19h29.905v2.096h-29.905zm34.621 0h31.434v2.096h-31.434zm-21.654 6.811h60.072v2.096h-60.072zm-3.93 3.493h94.041v2.096h-94.041zm24.887 4.539h66.01v2.097h-66.01zm-22.049 4.717h73.214v2.095h-73.214zm5.457 4.015h59.724v2.096h-59.724zm10.479 4.366h59.287v2.096h-59.287zm5.064 3.842h42.086v2.095h-42.086zm11.002 4.191h21.086v2.096h-21.086zm-30.91-57.54h75.615v2.096h-75.615z"/>
  </g>
</svg>
